<svg width="65" height="49" viewBox="0 0 65 49" fill="none" xmlns="http://www.w3.org/2000/svg">
<path fill-rule="evenodd" clip-rule="evenodd" d="M9.15495 20.199C8.15196 21.5178 8.40794 23.3999 9.72672 24.4029L37.9456 45.8648C39.2643 46.8678 41.1465 46.6118 42.1495 45.293L56.6675 26.2042C57.6705 24.8854 57.4145 23.0033 56.0958 22.0003L53.2993 19.8734C55.5858 14.7857 54.1601 8.6136 49.53 5.09222L48.0503 3.96684C43.4203 0.445454 37.0916 0.719888 32.7993 4.28215L27.8769 0.538406C26.5582 -0.464589 24.676 -0.208601 23.673 1.11017L9.15495 20.199ZM49.0804 16.6647L37.1836 7.61662C39.9255 6.03758 43.461 6.15345 46.1375 8.18901C48.8139 10.2246 49.8698 13.6007 49.0804 16.6647Z" fill="#E6DFD2"/>
<path d="M29.3635 39.3378L43.7833 20.3782L50.2461 25.2935L35.8264 44.2531L29.3635 39.3378Z" fill="#FADB59"/>
<path d="M43.7833 20.3782L47.5137 15.4732L53.9766 20.3886L50.2461 25.2935L43.7833 20.3782Z" fill="#FFC963"/>
<path d="M22.9006 34.4224L37.3204 15.4629L43.7832 20.3782L29.3635 39.3378L22.9006 34.4224Z" fill="#FADB59"/>
<path d="M37.3204 15.4629L41.0508 10.5579L47.5137 15.4732L43.7832 20.3782L37.3204 15.4629Z" fill="#FFC963"/>
<path d="M10.4851 24.9798L24.9048 6.02023L31.3677 10.9356L16.948 29.8951L10.4851 24.9798Z" fill="#FADB59"/>
<path d="M24.9048 6.02023L28.6353 1.11527L35.0982 6.03059L31.3677 10.9356L24.9048 6.02023Z" fill="#FFC963"/>
<path d="M16.948 29.8951L31.3677 10.9356L37.8306 15.8509L23.4108 34.8105L16.948 29.8951Z" fill="#FADB59"/>
<path d="M31.3677 10.9356L35.0982 6.03061L41.5611 10.9459L37.8306 15.8509L31.3677 10.9356Z" fill="#FFC963"/>
<path fill-rule="evenodd" clip-rule="evenodd" d="M17.8752 12.4694C18.0112 13.9565 17.5987 15.5232 16.6006 16.8356C15.7348 17.9739 14.5671 18.7388 13.3137 19.0952C13.2157 19.9334 12.8955 20.7632 12.3421 21.4908C10.7419 23.5948 7.79758 24.0478 5.76579 22.5025C3.734 20.9572 3.38415 17.9989 4.98437 15.8948C5.31769 15.4566 5.70932 15.09 6.13887 14.7981C5.79598 13.1254 6.16977 11.2822 7.31642 9.77457C8.34088 8.42758 9.78822 7.60356 11.2999 7.36029C10.6214 5.81158 10.7997 3.91749 11.9248 2.43817C13.248 0.698389 15.4738 0.0673428 17.3715 0.734358C17.4682 -0.107226 17.7887 -0.940721 18.3443 -1.67123C19.9445 -3.77526 22.8888 -4.22822 24.9206 -2.68294C26.9524 -1.13766 27.3022 1.82069 25.702 3.92471C25.0341 4.80299 24.1319 5.39358 23.1596 5.67122C24.3283 7.15502 24.353 9.36337 23.0954 11.0169C21.817 12.6977 19.6324 13.2548 17.8752 12.4694Z" fill="#FDF9D6"/>
<path d="M8.10425 23.1689L26.2545 -0.695647L29.9111 2.08539C29.9111 2.08539 16.784 19.3454 16.5161 19.6976C16.2482 20.0498 16.5349 20.1984 16.766 20.3742C16.9786 20.5358 20.3209 23.0779 20.3209 23.0779C20.3209 23.0779 21.3196 24.1154 20.3485 25.3923C19.3773 26.6692 18.1443 25.9399 18.1443 25.9399C18.1443 25.9399 14.914 23.4831 14.5893 23.2361C14.2646 22.9892 14.1385 22.8238 13.8706 23.176C13.6027 23.5282 11.7609 25.9499 11.7609 25.9499L8.10425 23.1689Z" fill="#FDF9D6"/>
<ellipse cx="29.8133" cy="18.274" rx="0.88509" ry="0.854701" transform="rotate(-52.7451 29.8133 18.274)" fill="#FFFEF6" fill-opacity="0.5"/>
<ellipse cx="35.233" cy="18.2956" rx="0.608499" ry="0.587607" transform="rotate(-52.7451 35.233 18.2956)" fill="#FFFEF6" fill-opacity="0.8"/>
<ellipse cx="34.5656" cy="25.0854" rx="1.32764" ry="1.28205" transform="rotate(-52.7451 34.5656 25.0854)" fill="#FFFEF6" fill-opacity="0.7"/>
</svg>
