<svg width="41" height="50" viewBox="0 0 41 50" fill="none" xmlns="http://www.w3.org/2000/svg">
<path fill-rule="evenodd" clip-rule="evenodd" d="M3.88525 8.547C2.2284 8.547 0.885254 9.89014 0.885254 11.547V47C0.885254 48.6568 2.2284 50 3.88525 50H27.8677C29.5245 50 30.8677 48.6568 30.8677 47V43.4866C36.3015 42.2267 40.351 37.3555 40.351 31.5385V29.6795C40.351 23.8625 36.3015 18.9913 30.8677 17.7313V11.547C30.8677 9.89014 29.5245 8.547 27.8677 8.547H3.88525ZM30.8677 38.1862V23.2395C33.7844 24.4661 35.8324 27.3503 35.8324 30.7129C35.8324 34.0754 33.7844 36.9596 30.8677 38.1862Z" fill="#E6DFD2"/>
<path d="M0.885254 36.218H24.7053V44.3376H0.885254V36.218Z" fill="#FADB59"/>
<path d="M24.7053 36.218H30.8677V44.3376H24.7053V36.218Z" fill="#FFC963"/>
<path d="M0.885254 28.0983H24.7053V36.218H0.885254V28.0983Z" fill="#FADB59"/>
<path d="M24.7053 28.0983H30.8677V36.218H24.7053V28.0983Z" fill="#FFC963"/>
<path d="M0.885254 12.5H24.7053V20.6197H0.885254V12.5Z" fill="#FADB59"/>
<path d="M24.7053 12.5H30.8677V20.6197H24.7053V12.5Z" fill="#FFC963"/>
<path d="M0.885254 20.6197H24.7053V28.7393H0.885254V20.6197Z" fill="#FADB59"/>
<path d="M24.7053 20.6197H30.8677V28.7393H24.7053V20.6197Z" fill="#FFC963"/>
<path fill-rule="evenodd" clip-rule="evenodd" d="M15.3164 10.8087C14.2151 11.8173 12.7184 12.4374 11.0695 12.4374C9.63938 12.4374 8.32372 11.9709 7.28124 11.1891C6.55474 11.6184 5.70046 11.8659 4.78633 11.8659C2.14291 11.8659 0 9.79656 0 7.24391C0 4.69125 2.14291 2.62192 4.78633 2.62192C5.33693 2.62192 5.86582 2.71169 6.35815 2.87692C7.48195 1.59143 9.17533 0.773139 11.0695 0.773139C12.7618 0.773139 14.2938 1.42632 15.4026 2.48229C16.2245 1.00467 17.8401 0 19.6986 0C21.8844 0 23.7341 1.38961 24.352 3.30389C25.0804 2.87137 25.9378 2.62192 26.8556 2.62192C29.499 2.62192 31.6419 4.69125 31.6419 7.24391C31.6419 9.79656 29.499 11.8659 26.8556 11.8659C25.7522 11.8659 24.736 11.5053 23.9264 10.8995C23.4528 12.7279 21.7101 14.0845 19.6326 14.0845C17.5209 14.0845 15.755 12.6828 15.3164 10.8087Z" fill="#FDF9D6"/>
<path d="M0.885254 9.50854H30.8677V14.1026C30.8677 14.1026 9.18297 14.1026 8.74043 14.1026C8.29788 14.1026 8.3532 14.4207 8.3532 14.711C8.3532 14.9781 8.3532 19.1773 8.3532 19.1773C8.3532 19.1773 8.13193 20.6003 6.5277 20.6003C4.92348 20.6003 4.75752 19.1773 4.75752 19.1773C4.75752 19.1773 4.75752 15.119 4.75752 14.711C4.75752 14.303 4.81284 14.1026 4.3703 14.1026C3.92775 14.1026 0.885254 14.1026 0.885254 14.1026V9.50854Z" fill="#FDF9D6"/>
<ellipse cx="17.9232" cy="23.8248" rx="0.88509" ry="0.854701" fill="#FFFEF6" fill-opacity="0.5"/>
<ellipse cx="21.1866" cy="28.1517" rx="0.608499" ry="0.587607" fill="#FFFEF6" fill-opacity="0.8"/>
<ellipse cx="15.3784" cy="31.7308" rx="1.32764" ry="1.28205" fill="#FFFEF6" fill-opacity="0.7"/>
</svg>
